<?xml version="1.0" encoding="UTF-8"?><svg id="Layer_2" xmlns="http://www.w3.org/2000/svg" viewBox="0 0 250 250"><defs><style>.cls-1{fill:#0a66c2;}.cls-2{fill:#fff;}</style></defs><g id="Layer_1-2"><rect class="cls-1" width="250" height="250"/><g id="Layer_1-2"><g id="_x31_3"><path class="cls-2" d="M135.43,142.92c-2.22,6.34-5.67,11.65-9.17,17.01-2.83,4.33-6.4,5.07-11.1,4.55-15.38-1.69-29.31-7.14-41.99-15.83-16.57-11.35-29.88-25.63-37.65-44.38-12.48-30.12,3.97-62.69,35.46-70.42,13.7-3.36,26.66-.8,38.85,6.04,2.4,1.35,4.7,2.88,7.03,4.35.21.13.35.37.55.59-5.27,4.94-10.5,9.84-15.43,14.46-4.22-1.66-8.2-3.75-12.44-4.81-19.64-4.94-38.28,11.09-36.81,31.29.6,8.32,4.08,15.43,8.77,22.01,12.29,17.24,28.12,29.57,49.04,34.6,7.08,1.7,14.24,2.19,21.46.91,1.03-.18,2.08-.23,3.41-.36h0Z"/><path class="cls-2" d="M146,117.45c7.62,2.88,14.11,6.84,19.76,12.09.75.7,1.17,2.19,1.11,3.28-.61,11.19-3.8,21.71-9.14,31.49-12.54,22.97-30.49,40.26-55.1,49.69-22.62,8.66-45.83,2.37-60.49-16.3-11.82-15.06-13.68-32.09-7.03-49.89,2-5.34,5.12-10.27,7.51-14.98,5.53,5.43,10.69,10.5,16,15.71-4.14,5.96-6.31,12.94-5.76,20.7.99,13.91,13.39,26.03,27.32,26.91,9.68.61,18.23-2.55,26.19-7.54,17.54-11.01,30.86-25.62,37.63-45.55,2.55-7.52,3.25-15.28,2.12-23.17-.1-.69-.07-1.4-.12-2.45h0Z"/><path class="cls-2" d="M116.4,105.25c2.94-8.01,7.27-14.66,12.9-20.46.53-.55,1.78-.63,2.66-.57,17.65,1.29,33.25,7.97,47.3,18.43,15.63,11.64,28.14,25.83,35.53,44.15,12.33,30.57-5.14,63.43-37.47,69.99-14.11,2.86-27.17-.52-39.26-8.05-1.56-.97-3.07-2.03-4.48-2.97,5.08-4.91,9.97-9.69,14.98-14.35.42-.39,1.76-.2,2.42.16,8.33,4.56,17.03,6.18,26.21,3.16,15.73-5.16,23.88-21.61,18.75-37.8-3.28-10.33-9.55-18.85-16.96-26.53-12.27-12.72-26.61-22-44.35-24.85-5.11-.82-10.44-.36-15.66-.47-.7-.02-1.4.07-2.55.14h0Z"/><path class="cls-2" d="M104.7,131.77c-7.72-2.32-14.21-6.46-20.02-11.65-.81-.72-.67-2.82-.53-4.24,1.03-10.93,4.14-21.28,9.48-30.86,12.36-22.19,29.88-38.87,53.58-48.41,18.6-7.49,36.45-5.46,52.36,7,18.58,14.54,24.29,39.51,14.54,61.42-1.94,4.35-4.49,8.42-6.49,12.14-5.45-5.18-10.64-10.12-15.88-15.1,1.27-2.6,2.91-5.25,3.91-8.13,4.1-11.74,1.9-22.47-6.64-31.37-8.73-9.1-19.62-10.94-31.47-7.26-9.25,2.88-17.12,8.24-24.39,14.47-12.18,10.44-21.78,22.72-26.41,38.38-2.14,7.24-3.08,14.61-2.04,22.15.06.42,0,.86,0,1.46Z"/></g></g></g></svg>